<?xml version="1.0" encoding="utf-8"?>
<!-- Generator: Adobe Illustrator 15.0.0, SVG Export Plug-In . SVG Version: 6.00 Build 0)  -->
<!DOCTYPE svg PUBLIC "-//W3C//DTD SVG 1.1//EN" "http://www.w3.org/Graphics/SVG/1.1/DTD/svg11.dtd">
<svg version="1.1" id="Layer_1" xmlns="http://www.w3.org/2000/svg" xmlns:xlink="http://www.w3.org/1999/xlink" x="0px" y="0px"
	 width="108.349px" height="107.1px" viewBox="0 342.45 108.349 107.1" enable-background="new 0 342.45 108.349 107.1"
	 xml:space="preserve">
<path id="mark_3_" fill="#01B3E3" d="M36.163,342.45L0,362.949l0.003,47.216l0,0c-0.067,21.686,17.668,39.317,39.612,39.385
	c7.255,0.021,14.064-1.879,19.927-5.22l0,0l29.293-16.635c11.555-5.924,19.468-17.84,19.51-31.598l0.003-49.312l0,0l0,0l-7.17-4.144
	l-29.373,16.402l0.003,0.003l0,0L71.8,410.382c-0.006,2.185-0.104,3.782-0.679,6.481c-0.979,4.115-2.356,7.011-2.598,7.5
	c-2.24-0.153-6.971-1.436-10.747-3.66c-1.885-1.083-4.128-2.689-6.15-4.58c-1.307-1.298-2.491-2.727-3.519-4.241
	c-1.038-1.53-1.931-3.164-2.647-4.856c-0.731-1.723-1.292-3.525-1.665-5.355c-0.383-1.882-0.468-3.821-0.465-5.765l0,0l0.024-49.309
	L36.163,342.45z M52.807,439.884c-1.962,0.813-4.012,1.435-6.099,1.851c-2.142,0.426-4.119,0.64-6.328,0.634
	c-2.209-0.006-4.416-0.232-6.558-0.673c-2.084-0.429-4.131-1.062-6.086-1.889c-1.922-0.811-3.776-1.812-5.511-2.977
	c-4.474-3.106-6.781-5.796-8.764-8.712c-1.169-1.72-2.169-3.56-2.98-5.463c-0.823-1.937-1.454-3.966-1.873-6.024
	c-0.432-2.118-0.511-4.3-0.505-6.484L8.1,367.049l27.118-16.355l-0.034,45.19l0,0c-0.052,17.173,12.742,31.506,29.079,34.97
	c-0.64,0.756-1.102,1.48-1.809,2.176c-1.478,1.45-3.072,2.809-4.798,3.953C55.916,438.137,54.731,439.085,52.807,439.884z
	 M99.777,401.924c-0.385,1.83-0.955,3.626-1.698,5.346c-1.971,4.321-5.178,7.993-7.858,10.358
	c-5.472,4.973-12.289,6.509-13.076,6.512c1.64-4.284,2.745-8.874,2.763-13.724l0,0l-0.003-47.229l0,0l20.34-12.301l0.009,45.19
	C100.249,398.02,100.172,400.042,99.777,401.924z"/>
</svg>
